<?xml version="1.0" standalone="no"?><svg xmlns="http://www.w3.org/2000/svg" viewBox="0 0 1440 320"><path fill="#C4D6FE" fill-opacity="1" d="M0,128L6.2,122.7C12.3,117,25,107,37,90.7C49.2,75,62,53,74,53.3C86.2,53,98,75,111,112C123.1,149,135,203,148,197.3C160,192,172,128,185,96C196.9,64,209,64,222,74.7C233.8,85,246,107,258,149.3C270.8,192,283,256,295,266.7C307.7,277,320,235,332,218.7C344.6,203,357,213,369,192C381.5,171,394,117,406,96C418.5,75,431,85,443,112C455.4,139,468,181,480,165.3C492.3,149,505,75,517,58.7C529.2,43,542,85,554,112C566.2,139,578,149,591,165.3C603.1,181,615,203,628,176C640,149,652,75,665,48C676.9,21,689,43,702,85.3C713.8,128,726,192,738,213.3C750.8,235,763,213,775,218.7C787.7,224,800,256,812,245.3C824.6,235,837,181,849,160C861.5,139,874,149,886,144C898.5,139,911,117,923,128C935.4,139,948,181,960,197.3C972.3,213,985,203,997,213.3C1009.2,224,1022,256,1034,256C1046.2,256,1058,224,1071,197.3C1083.1,171,1095,149,1108,133.3C1120,117,1132,107,1145,117.3C1156.9,128,1169,160,1182,149.3C1193.8,139,1206,85,1218,80C1230.8,75,1243,117,1255,165.3C1267.7,213,1280,267,1292,288C1304.6,309,1317,299,1329,298.7C1341.5,299,1354,309,1366,304C1378.5,299,1391,277,1403,272C1415.4,267,1428,277,1434,282.7L1440,288L1440,0L1433.8,0C1427.7,0,1415,0,1403,0C1390.8,0,1378,0,1366,0C1353.8,0,1342,0,1329,0C1316.9,0,1305,0,1292,0C1280,0,1268,0,1255,0C1243.1,0,1231,0,1218,0C1206.2,0,1194,0,1182,0C1169.2,0,1157,0,1145,0C1132.3,0,1120,0,1108,0C1095.4,0,1083,0,1071,0C1058.5,0,1046,0,1034,0C1021.5,0,1009,0,997,0C984.6,0,972,0,960,0C947.7,0,935,0,923,0C910.8,0,898,0,886,0C873.8,0,862,0,849,0C836.9,0,825,0,812,0C800,0,788,0,775,0C763.1,0,751,0,738,0C726.2,0,714,0,702,0C689.2,0,677,0,665,0C652.3,0,640,0,628,0C615.4,0,603,0,591,0C578.5,0,566,0,554,0C541.5,0,529,0,517,0C504.6,0,492,0,480,0C467.7,0,455,0,443,0C430.8,0,418,0,406,0C393.8,0,382,0,369,0C356.9,0,345,0,332,0C320,0,308,0,295,0C283.1,0,271,0,258,0C246.2,0,234,0,222,0C209.2,0,197,0,185,0C172.3,0,160,0,148,0C135.4,0,123,0,111,0C98.5,0,86,0,74,0C61.5,0,49,0,37,0C24.6,0,12,0,6,0L0,0Z"></path></svg>